Coordinates
version=1
nRows=14
nColumns=24
inDegrees=yes

Units are S.I. units (second, meters, Newtons, ...)
Angles are in degrees.

endheader
time	pelvis_tilt	pelvis_list	pelvis_rotation	pelvis_tx	pelvis_ty	pelvis_tz	hip_flexion_r	hip_adduction_r	hip_rotation_r	knee_angle_r	ankle_angle_r	subtalar_angle_r	mtp_angle_r	hip_flexion_l	hip_adduction_l	hip_rotation_l	knee_angle_l	ankle_angle_l	subtalar_angle_l	mtp_angle_l	lumbar_extension	lumbar_bending	lumbar_rotation
      1.06300000	     -2.06448222	     -1.95572347	     -5.95580164	     -0.15470575	      0.88685211	      0.38248925	    -16.01301543	      6.17704844	      1.79377653	     -6.66028375	     19.03498518	     14.13389005	      7.54253426	     27.76960798	     -3.43024717	    -14.19817719	     -6.18391816	      2.42671478	      0.39294625	     -2.19645721	     -5.70737769	      2.63958555	     12.79688451
      1.06716667	     -2.16486593	     -1.90065561	     -6.07816468	     -0.14911142	      0.88573269	      0.38252149	    -16.00976822	      6.03690290	      1.78091496	     -7.23724495	     19.23076362	     14.37653410	      7.72025060	     27.94494958	     -3.38020716	    -13.98226715	     -6.58229501	      2.31208726	      0.22370522	     -2.16385327	     -5.59744339	      2.49959706	     12.86300015
      1.07133333	     -2.23200425	     -1.81818410	     -6.17933068	     -0.14344820	      0.88472282	      0.38249664	    -16.03442058	      5.86120448	      1.68769385	     -7.81666652	     19.28976083	     14.65031542	     10.46016065	     28.06461334	     -3.28123030	    -13.72629895	     -6.99968784	      2.06381654	     -0.11242527	     -1.40407576	     -5.51254357	      2.32754690	     12.86741248
      1.07550000	     -2.32820224	     -1.75494533	     -6.28504625	     -0.13781433	      0.88371366	      0.38251381	    -16.01355616	      5.71750148	      1.70688678	     -8.43587598	     19.41242135	     14.81680388	     10.50412988	     28.25514557	     -3.22565689	    -13.51445227	     -7.57909510	      1.93230918	     -0.31617258	     -1.38036123	     -5.40695370	      2.17345618	     12.93887512
      1.07966667	     -2.41637432	     -1.66252115	     -6.37814323	     -0.13212088	      0.88278589	      0.38249344	    -15.97548038	      5.53945793	      1.65210620	     -9.10068558	     19.48855673	     15.06336347	     10.59033780	     28.41985887	     -3.12573771	    -13.27604580	     -8.17346068	      1.68598078	     -0.66281024	     -1.33517736	     -5.29248488	      1.98558437	     12.97252636
      1.08383333	     -2.48502118	     -1.56082870	     -6.45286306	     -0.12638818	      0.88194540	      0.38243194	    -15.94912384	      5.35087273	      1.58359030	     -9.78222694	     19.51487675	     15.30368883	     10.72201151	     28.56158012	     -3.00179538	    -13.00709421	     -8.81053324	      1.40983627	     -1.09328125	     -1.26729561	     -5.19658001	      1.78098292	     12.97610902
      1.08800000	     -2.54561924	     -1.44766696	     -6.51637420	     -0.12061752	      0.88118140	      0.38236781	    -15.91766437	      5.15320207	      1.51134227	    -10.48689252	     19.48860074	     15.51955968	     10.90782275	     28.69498102	     -2.86135596	    -12.73791129	     -9.49200974	      1.10352861	     -1.57373892	     -1.17418666	     -5.10728826	      1.56105277	     12.96029254
      1.09216667	     -2.59499618	     -1.32808451	     -6.56496534	     -0.11480878	      0.88050387	      0.38226221	    -15.88222911	      4.94886695	      1.43158482	    -11.22052981	     19.39904201	     15.70788323	     11.14159125	     28.81746819	     -2.70376944	    -12.46181644	    -10.21215065	      0.78994833	     -2.09345466	     -1.06396740	     -5.02225462	      1.33120589	     12.92613552
      1.09633333	     -2.55077725	     -1.15594234	     -6.58669957	     -0.10887638	      0.88004057	      0.38209085	    -15.94978503	      4.67216500	      1.25716738	    -11.93813335	     19.24098309	     16.00336535	     12.15087799	     28.79594401	     -2.45076602	    -12.13565625	    -10.86926729	      0.40477116	     -2.83448011	     -0.59514500	     -5.03697355	      1.01554647	     12.86353834
      1.10050000	     -2.61724512	     -1.06143184	     -6.61356734	     -0.10304386	      0.87947036	      0.38198213	    -15.85929286	      4.51098960	      1.24013932	    -12.73282181	     18.94594201	     15.97980452	     15.87000517	     28.97628282	     -2.33045786	    -11.93767889	    -11.73363622	      0.09094351	     -3.24457521	      1.06183687	     -4.93830631	      0.83091691	     12.81471925
      1.10466667	     -2.66916503	     -0.93673803	     -6.61806976	     -0.09712562	      0.87899644	      0.38182324	    -15.76894600	      4.31579886	      1.17066974	    -13.55885224	     18.64009944	     16.05847620	     15.92075230	     29.12215551	     -2.15650564	    -11.69351110	    -12.58517663	     -0.15750406	     -3.71914795	      1.08196551	     -4.82937748	      0.58863686	     12.73537668
      1.10883333	     -2.67706706	     -0.79746165	     -6.59308362	     -0.09117594	      0.87865150	      0.38159385	    -15.69644150	      4.10172007	      1.04889286	    -14.44217266	     18.35498053	     16.19165027	     16.07720146	     29.20556147	     -1.93637426	    -11.39756566	    -13.41020435	     -0.47019225	     -4.35489919	      1.12358011	     -4.78367566	      0.33345590	     12.62623970
      1.11300000	     -2.63580236	     -0.62029031	     -6.56826702	     -0.08512790	      0.87847761	      0.38132776	    -15.65776131	      3.82900431	      0.86885391	    -15.34547687	     17.96274333	     16.36833974	     16.77821814	     29.19790583	     -1.65874073	    -11.08281994	    -14.18141054	     -0.76823004	     -5.07651698	      1.28634545	     -4.77958283	      0.01558964	     12.49347394
      1.11716667	     -2.68824232	     -0.50987887	     -6.54168020	     -0.07914870	      0.87821967	      0.38110977	    -15.47778096	      3.65753202	      0.81326976	    -16.33038100	     17.47690123	     16.36542364	     16.95510480	     29.35318622	     -1.49158120	    -10.86059255	    -15.11166150	     -0.88198803	     -5.47551760	      1.31992984	     -4.66880215	     -0.20357635	     12.39738574
